<?xml version="1.0" encoding="UTF-8"?>
<svg id="Layer_2" data-name="Layer 2" xmlns="http://www.w3.org/2000/svg" viewBox="0 0 645.87 639.85">
  <defs>
    <style>
      .cls-1 {
        fill: #231f20;
      }
    </style>
  </defs>
  <g id="Layer_1-2" data-name="Layer 1">
    <path class="cls-1" d="M0,0v352.16l322.93,287.69,322.93-287.69V0H0ZM305.9,584.76c-38.32-34.05-76.64-68.1-114.96-102.14v-175.34c-23.92-13.04-47.84-26.07-71.76-39.11v150.7c-28.38-25.21-56.75-50.42-85.13-75.64V29.04h85.13v168.48c23.92,9.19,47.84,18.37,71.76,27.56V29.04h114.96v555.72ZM611.81,343.23c-19.82,17.61-39.64,35.22-59.46,52.83v-241.89c-17.22,59.52-32.81,119.47-47.43,179.68-7.77,5.14-11.66,7.72-19.43,12.86-19.06-49.27-35.9-99.25-51.57-149.7v304.26c-31.32,27.83-62.64,55.66-93.96,83.49V29.04h91.87c19.04,61.12,39.67,121.66,63.5,181.08,13.54-60.63,27.98-121.04,43.93-181.08h72.54v314.19Z"/>
  </g>
</svg>